<svg width="20" height="20" viewBox="0 0 20 20" fill="none" xmlns="http://www.w3.org/2000/svg">
<path d="M1.66669 5.83331L5.99489 8.71878C6.24459 8.88525 6.36944 8.96848 6.50452 9.02745C6.62441 9.07979 6.75005 9.11783 6.87883 9.14078C7.02393 9.16665 7.17398 9.16665 7.47409 9.16665H12.526C12.8261 9.16665 12.9761 9.16665 13.1212 9.14078C13.25 9.11783 13.3756 9.07979 13.4955 9.02745C13.6306 8.96848 13.7555 8.88524 14.0052 8.71878L18.3334 5.83331M5.66669 16.6666H14.3334C15.7335 16.6666 16.4336 16.6666 16.9683 16.3942C17.4387 16.1545 17.8212 15.772 18.0609 15.3016C18.3334 14.7668 18.3334 14.0668 18.3334 12.6666V7.33331C18.3334 5.93318 18.3334 5.23312 18.0609 4.69834C17.8212 4.22793 17.4387 3.84548 16.9683 3.6058C16.4336 3.33331 15.7335 3.33331 14.3334 3.33331H5.66669C4.26656 3.33331 3.56649 3.33331 3.03171 3.6058C2.56131 3.84548 2.17885 4.22793 1.93917 4.69834C1.66669 5.23312 1.66669 5.93318 1.66669 7.33331V12.6666C1.66669 14.0668 1.66669 14.7668 1.93917 15.3016C2.17885 15.772 2.56131 16.1545 3.03171 16.3942C3.56649 16.6666 4.26656 16.6666 5.66669 16.6666Z" stroke="#344054" stroke-width="1.66667" stroke-linecap="round" stroke-linejoin="round"/>
</svg>
