<svg width="19" height="18" viewBox="0 0 19 18" fill="none" xmlns="http://www.w3.org/2000/svg">
<path d="M8.75036 9.00002H4.16702M4.09648 9.24294L2.15071 15.0552C1.99785 15.5118 1.92142 15.7401 1.97627 15.8807C2.0239 16.0028 2.1262 16.0954 2.25244 16.1306C2.3978 16.1712 2.61736 16.0724 3.05647 15.8748L16.9827 9.60797C17.4113 9.4151 17.6256 9.31866 17.6918 9.1847C17.7494 9.06831 17.7494 8.93174 17.6918 8.81535C17.6256 8.68139 17.4113 8.58495 16.9827 8.39208L3.05161 2.12313C2.61383 1.92612 2.39493 1.82762 2.24971 1.86803C2.1236 1.90312 2.0213 1.99544 1.97351 2.11731C1.91847 2.25764 1.99408 2.48545 2.14531 2.94108L4.09702 8.8213C4.12299 8.89955 4.13598 8.93868 4.14111 8.9787C4.14565 9.01421 4.14561 9.05016 4.14097 9.08565C4.13574 9.12566 4.12265 9.16475 4.09648 9.24294Z" stroke="#667085" stroke-width="2" stroke-linecap="round" stroke-linejoin="round"/>
</svg>
